<svg width="454" height="115" viewBox="0 0 454 115" fill="none" xmlns="http://www.w3.org/2000/svg">
<g id="logo">
<path id="IndieInflux" d="M92.78 43.5H112.76V47.01H104.66V71.49H112.76V75H92.78V71.49H100.88V47.01H92.78V43.5ZM123.979 75H120.469V52.68H123.979V56.46H124.519C125.899 53.52 128.299 52.05 131.719 52.05C134.299 52.05 136.354 52.86 137.884 54.48C139.414 56.07 140.179 58.47 140.179 61.68V75H136.669V62.4C136.669 60.06 136.144 58.305 135.094 57.135C134.044 55.965 132.619 55.38 130.819 55.38C128.689 55.38 127.009 56.115 125.779 57.585C124.579 59.025 123.979 60.96 123.979 63.39V75ZM165.302 71.58H164.762C164.402 72.27 163.937 72.87 163.367 73.38C162.827 73.89 162.227 74.31 161.567 74.64C160.937 74.97 160.262 75.21 159.542 75.36C158.822 75.54 158.132 75.63 157.472 75.63C155.972 75.63 154.577 75.375 153.287 74.865C151.997 74.355 150.857 73.62 149.867 72.66C148.907 71.7 148.142 70.515 147.572 69.105C147.032 67.665 146.762 66.03 146.762 64.2V63.48C146.762 61.68 147.047 60.075 147.617 58.665C148.187 57.225 148.952 56.025 149.912 55.065C150.872 54.075 151.997 53.325 153.287 52.815C154.577 52.305 155.942 52.05 157.382 52.05C158.912 52.05 160.337 52.395 161.657 53.085C163.007 53.745 164.042 54.78 164.762 56.19H165.302V43.5H168.812V75H165.302V71.58ZM157.832 72.3C158.882 72.3 159.857 72.105 160.757 71.715C161.657 71.325 162.437 70.77 163.097 70.05C163.787 69.33 164.327 68.475 164.717 67.485C165.107 66.465 165.302 65.34 165.302 64.11V63.57C165.302 62.37 165.107 61.275 164.717 60.285C164.327 59.265 163.787 58.395 163.097 57.675C162.437 56.955 161.642 56.4 160.712 56.01C159.812 55.59 158.852 55.38 157.832 55.38C156.782 55.38 155.792 55.575 154.862 55.965C153.962 56.355 153.167 56.91 152.477 57.63C151.817 58.35 151.292 59.205 150.902 60.195C150.542 61.185 150.362 62.28 150.362 63.48V64.2C150.362 65.46 150.542 66.585 150.902 67.575C151.292 68.565 151.817 69.42 152.477 70.14C153.167 70.83 153.962 71.37 154.862 71.76C155.762 72.12 156.752 72.3 157.832 72.3ZM182.506 46.02C182.506 45.15 182.806 44.415 183.406 43.815C184.036 43.185 184.786 42.87 185.656 42.87C186.526 42.87 187.261 43.185 187.861 43.815C188.491 44.415 188.806 45.15 188.806 46.02C188.806 46.89 188.491 47.64 187.861 48.27C187.261 48.87 186.526 49.17 185.656 49.17C184.786 49.17 184.036 48.87 183.406 48.27C182.806 47.64 182.506 46.89 182.506 46.02ZM176.116 71.76H183.946V55.92H176.926V52.68H187.456V71.76H194.746V75H176.116V71.76ZM205.695 64.92C205.785 67.14 206.475 68.925 207.765 70.275C209.055 71.625 210.855 72.3 213.165 72.3C214.215 72.3 215.13 72.18 215.91 71.94C216.69 71.7 217.35 71.37 217.89 70.95C218.46 70.53 218.91 70.05 219.24 69.51C219.6 68.94 219.885 68.34 220.095 67.71L223.425 68.61C222.795 70.68 221.625 72.375 219.915 73.695C218.235 74.985 215.955 75.63 213.075 75.63C211.485 75.63 210.015 75.36 208.665 74.82C207.345 74.25 206.205 73.455 205.245 72.435C204.285 71.415 203.535 70.2 202.995 68.79C202.455 67.38 202.185 65.82 202.185 64.11V63.03C202.185 61.47 202.455 60.015 202.995 58.665C203.565 57.315 204.345 56.16 205.335 55.2C206.325 54.21 207.48 53.445 208.8 52.905C210.15 52.335 211.605 52.05 213.165 52.05C214.995 52.05 216.57 52.395 217.89 53.085C219.24 53.745 220.335 54.57 221.175 55.56C222.045 56.55 222.675 57.63 223.065 58.8C223.485 59.97 223.695 61.05 223.695 62.04V64.92H205.695ZM213.165 55.38C212.175 55.38 211.245 55.545 210.375 55.875C209.535 56.175 208.785 56.61 208.125 57.18C207.495 57.75 206.97 58.425 206.55 59.205C206.16 59.955 205.905 60.78 205.785 61.68H220.185C220.125 60.72 219.885 59.85 219.465 59.07C219.075 58.29 218.55 57.63 217.89 57.09C217.26 56.55 216.525 56.13 215.685 55.83C214.875 55.53 214.035 55.38 213.165 55.38ZM230.549 43.5H250.529V47.01H242.429V71.49H250.529V75H230.549V71.49H238.649V47.01H230.549V43.5ZM261.747 75H258.237V52.68H261.747V56.46H262.287C263.667 53.52 266.067 52.05 269.487 52.05C272.067 52.05 274.122 52.86 275.652 54.48C277.182 56.07 277.947 58.47 277.947 61.68V75H274.437V62.4C274.437 60.06 273.912 58.305 272.862 57.135C271.812 55.965 270.387 55.38 268.587 55.38C266.457 55.38 264.777 56.115 263.547 57.585C262.347 59.025 261.747 60.96 261.747 63.39V75ZM300.596 46.74H294.026C293.216 46.74 292.811 47.19 292.811 48.09V52.68H298.436V55.92H292.811V75H289.301V55.92H284.036V52.68H289.301V47.01C289.301 45.99 289.616 45.15 290.246 44.49C290.906 43.83 291.746 43.5 292.766 43.5H304.106V75H300.596V46.74ZM329.275 52.68H332.785V75H329.275V70.95H328.735C328.015 72.39 327.07 73.53 325.9 74.37C324.73 75.21 323.245 75.63 321.445 75.63C320.215 75.63 319.075 75.42 318.025 75C317.005 74.61 316.12 74.01 315.37 73.2C314.65 72.39 314.08 71.385 313.66 70.185C313.27 68.985 313.075 67.59 313.075 66V52.68H316.585V65.55C316.585 67.89 317.065 69.6 318.025 70.68C318.985 71.76 320.455 72.3 322.435 72.3C324.565 72.3 326.23 71.58 327.43 70.14C328.66 68.67 329.275 66.72 329.275 64.29V52.68ZM356.783 52.68H360.788L354.218 63.3V63.84L361.328 75H357.233L351.158 65.19H350.348L344.273 75H340.178L347.288 63.84V63.3L340.718 52.68H344.723L350.348 61.95H351.158L356.783 52.68Z" fill="black"/>
</g>
</svg>
